<svg xmlns="http://www.w3.org/2000/svg" viewBox="0 0 640 360" width="640" height="360" role="img" aria-label="COVID-19">
  <defs>
    <linearGradient id="g" x1="0" y1="0" x2="1" y2="1">
      <stop offset="0" stop-color="#1e3a8a"/>
      <stop offset="1" stop-color="#2563eb"/>
    </linearGradient>
  </defs>
  <rect width="640" height="360" fill="url(#g)"/>
  <g fill="none" stroke="#ffffff" stroke-width="10" stroke-linecap="round" opacity="0.92" transform="translate(320 175)">
    <circle r="62" fill="#ffffff" fill-opacity="0.12"/>
    <g>
      <line x1="0" y1="-62" x2="0" y2="-92"/><circle cx="0" cy="-98" r="9" fill="#fff" stroke="none"/>
      <line x1="0" y1="62" x2="0" y2="92"/><circle cx="0" cy="98" r="9" fill="#fff" stroke="none"/>
      <line x1="-62" y1="0" x2="-92" y2="0"/><circle cx="-98" cy="0" r="9" fill="#fff" stroke="none"/>
      <line x1="62" y1="0" x2="92" y2="0"/><circle cx="98" cy="0" r="9" fill="#fff" stroke="none"/>
      <line x1="44" y1="44" x2="65" y2="65"/><circle cx="71" cy="71" r="9" fill="#fff" stroke="none"/>
      <line x1="-44" y1="44" x2="-65" y2="65"/><circle cx="-71" cy="71" r="9" fill="#fff" stroke="none"/>
      <line x1="44" y1="-44" x2="65" y2="-65"/><circle cx="71" cy="-71" r="9" fill="#fff" stroke="none"/>
      <line x1="-44" y1="-44" x2="-65" y2="-65"/><circle cx="-71" cy="-71" r="9" fill="#fff" stroke="none"/>
    </g>
  </g>
  <rect x="24" y="304" width="150" height="34" rx="17" fill="#000000" fill-opacity="0.28"/>
  <text x="44" y="327" font-family="Segoe UI, Arial, sans-serif" font-size="18" font-weight="600" fill="#ffffff">COVID-19</text>
</svg>
